{"title":"Jack Reacher 2012 720p BRRip x264-SSDD (HQ)","uid":8384037,"size":3220596099,"categoryP":"video","categoryS":"hd___movies","magnet":"?xt=urn:btih:4d74ba834996ea7e2f56e7da8603b17cf94a5937&amp;dn=Jack+Reacher+2012+720p+BRRip+x264-SSDD+%28HQ%29&amp;tr=udp%3A%2F%2Ftracker.openbittorrent.com%3A80&amp;tr=udp%3A%2F%2Fopen.demonii.com%3A1337&amp;tr=udp%3A%2F%2Ftracker.coppersurfer.tk%3A6969&amp;tr=udp%3A%2F%2Fexodus.desync.com%3A6969","seeders":1,"leechers":0,"uploader":"Gh0stNet","files":2,"time":1366236150,"description":"Source - Jack.Reacher.2012.720p.BluRay.X264-AMIABLE\n\nNOTES - Enjoy.\n\nGeneral\nComplete name                            : Jack Reacher 2012 720p BRRip x264-SSDD (HQ).mp4\nFormat                                   : MPEG-4\nFormat profile                           : Base Media\nCodec ID                                 : isom\nFile size                                : 3.00 GiB\nDuration                                 : 2h 10mn\nOverall bit rate mode                    : Variable\nOverall bit rate                         : 3 293 Kbps\n\nVideo\nID                                       : 1\nFormat                                   : AVC\nFormat/Info                              : Advanced Video Codec\nFormat profile                           : &lt;a class=&quot;__cf_email__&quot; href=&quot;/cdn-cgi/l/email-protection&quot; data-cfemail=&quot;eca4858b84aca0d8c2dd&quot;&gt;[email&amp;#160;protected]&lt;/a&gt;&lt;script cf-hash='f9e31' type=&quot;text/javascript&quot;&gt;\n/* &lt;![CDATA[ */!function(){try{var t=&quot;currentScript&quot;in document?document.currentScript:function(){for(var t=document.getElementsByTagName(&quot;script&quot;),e=t.length;e--;)if(t[e].getAttribute(&quot;cf-hash&quot;))return t[e]}();if(t&amp;&amp;t.previousSibling){var e,r,n,i,c=t.previousSibling,a=c.getAttribute(&quot;data-cfemail&quot;);if(a){for(e=&quot;&quot;,r=parseInt(a.substr(0,2),16),n=2;a.length-n;n+=2)i=parseInt(a.substr(n,2),16)^r,e+=String.fromCharCode(i);e=document.createTextNode(e),c.parentNode.replaceChild(e,c)}}}catch(u){}}();/* ]]&gt; */&lt;/script&gt;\nFormat settings, CABAC                   : Yes\nFormat settings, ReFrames                : 4 frames\nCodec ID                                 : avc1\nCodec ID/Info                            : Advanced Video Coding\nDuration                                 : 2h 10mn\nBit rate                                 : 2 970 Kbps\nMaximum bit rate                         : 9 301 Kbps\nWidth                                    : 1 280 pixels\nHeight                                   : 544 pixels\nDisplay aspect ratio                     : 2.35:1\nFrame rate mode                          : Constant\nFrame rate                               : 23.976 fps\nColor space                              : YUV\nChroma subsampling                       : 4:2:0\nBit depth                                : 8 bits\nScan type                                : Progressive\nBits/(Pixel*Frame)                       : 0.178\nStream size                              : 2.70 GiB (90%)\nWriting library                          : x264 core 130 r2273 b3065e6\n\nAudio\nID                                       : 2\nFormat                                   : AAC\nFormat/Info                              : Advanced Audio Codec\nFormat profile                           : LC\nCodec ID                                 : 40\nDuration                                 : 2h 10mn\nBit rate mode                            : Variable\nBit rate                                 : 320 Kbps\nMaximum bit rate                         : 343 Kbps\nChannel(s)                               : 6 channels\nChannel positions                        : Front: L C R, Side: L R, LFE\nSampling rate                            : 48.0 KHz\nCompression mode                         : Lossy\nStream size                              : 298 MiB (10%)\n\nScreens: &lt;a href=&quot;\nhttp://i.imgur.com/xHxLd2W.jpg&quot; rel=&quot;nofollow&quot; target=&quot;_NEW&quot;&gt;\nhttp://i.imgur.com/xHxLd2W.jpg&lt;/a&gt; &lt;a href=&quot;\nhttp://i.imgur.com/RWPjxdM.jpg&quot; rel=&quot;nofollow&quot; target=&quot;_NEW&quot;&gt;\nhttp://i.imgur.com/RWPjxdM.jpg&lt;/a&gt; &lt;a href=&quot;\nhttp://i.imgur.com/hg18MFT.jpg&quot; rel=&quot;nofollow&quot; target=&quot;_NEW&quot;&gt;\nhttp://i.imgur.com/hg18MFT.jpg&lt;/a&gt; &lt;a href=&quot;\nhttp://i.imgur.com/TQZTGlC.png&quot; rel=&quot;nofollow&quot; target=&quot;_NEW&quot;&gt;\nhttp://i.imgur.com/TQZTGlC.png&lt;/a&gt;","torrent":{"xt":"urn:btih:4d74ba834996ea7e2f56e7da8603b17cf94a5937","amp;dn":"Jack+Reacher+2012+720p+BRRip+x264-SSDD+%28HQ%29","amp;tr":["udp%3A%2F%2Ftracker.openbittorrent.com%3A80","udp%3A%2F%2Fopen.demonii.com%3A1337","udp%3A%2F%2Ftracker.coppersurfer.tk%3A6969","udp%3A%2F%2Fexodus.desync.com%3A6969"],"infoHash":"4d74ba834996ea7e2f56e7da8603b17cf94a5937","infoHashBuffer":{"type":"Buffer","data":[77,116,186,131,73,150,234,126,47,86,231,218,134,3,177,124,249,74,89,55]},"announce":[],"urlList":[]}}